<svg xmlns="http://www.w3.org/2000/svg" version="1.1" xmlns:xlink="http://www.w3.org/1999/xlink" xmlns:svgjs="http://svgjs.dev/svgjs" viewBox="0 0 1920 1080"><rect width="1920" height="1080" fill="#dad416"></rect><g transform="matrix(0.8131727983645296,0.8131727983645295,-0.8131727983645295,0.8131727983645296,618.1367159557883,-678.3197746899214)"><path d="M0,-1080C1.4177659109681144,-974.094366949687,7.355622522587955,-648.6695688099492,8.506595465808687,-444.5662016981219C9.657568409029418,-240.46283458629472,-4.7924468478047775,-60.59153879021517,6.905837659324391,144.62020267096318C18.604122166453557,349.83194413214153,79.3369020374966,537.5336512435426,78.6963025085837,786.7042470689481C78.0557029796708,1035.8748428943536,16.178290903944266,1410.7611521348874,3.062240485846985,1639.643777623396C-10.053809932250298,1868.5264031119048,0.5103734143078308,2073.2739629372327,0,2160L 1920 2160 L 1920 -1080 Z" fill="url(&quot;#SvgjsLinearGradient1610&quot;)"></path><path d="M160,-1080C180.85168437184893,-993.3272581897124,278.61990295473174,-724.5608663743583,285.1101062310936,-559.9635491382749C291.60030950745545,-395.3662319021915,202.61996607743626,-221.3619311059788,198.94121965817106,-92.41609658349978C195.26247323890587,36.52973793897925,250.79089652356234,51.38685101842631,263.03762771550237,213.71145799659945C275.28435890744237,376.03606497477256,289.74589984221825,702.7645654333799,272.4216068098112,881.5315452855391C255.0973137774041,1060.2985251376983,195.97194748018615,1168.663967930208,159.09186952105995,1286.3133371095548C122.21179156193375,1403.9627062889017,50.98978397523066,1441.813316546547,51.141139055054,1587.427760361621C51.29249413487734,1733.0422041766951,141.85685650917566,2064.5712933936034,160,2160L 1920 2160 L 1920 -1080 Z" fill="url(&quot;#SvgjsLinearGradient1611&quot;)"></path><path d="M320,-1080C334.07999328272285,-1002.5672180707792,417.04942365536766,-786.1147102108051,404.4799596963371,-615.4033084246751C391.9104957373066,-444.691906638545,246.76258629217446,-227.85948922347816,244.58321624581674,-55.73158928321959C242.40384619945903,116.39631065703898,382.8357624404697,208.69551055334264,391.40373941819087,417.3640912168763C399.97171639591204,626.03267188041,290.14405895511237,977.5403855630992,295.9910781121438,1196.2798946979824C301.8380972691752,1415.0194038328655,422.4843673790701,1569.181128475839,426.48585436037945,1729.8011460261753C430.4873413416888,1890.4211635765116,337.7476423933966,2088.3001910043627,320,2160L 1920 2160 L 1920 -1080 Z" fill="url(&quot;#SvgjsLinearGradient1612&quot;)"></path><path d="M480,-1080C490.0871088552787,-954.950767976408,523.4471997560815,-545.961944826635,540.5226531316721,-329.704607858448C557.5981065072626,-113.44727089026108,600.1931737812362,29.281313714006444,582.4527202535435,217.54402180912172C564.7122667258508,405.806729904237,449.0961055503038,595.4995855281832,434.07993196551575,799.8716407122436C419.06375838072773,1004.243695896304,484.70233407240124,1217.0882930321916,492.3556787448153,1443.7763529134843C500.00902341722934,1670.464412794777,482.0592797908025,2040.6293921522474,480,2160L 1920 2160 L 1920 -1080 Z" fill="url(&quot;#SvgjsLinearGradient1613&quot;)"></path><path d="M640,-1080C646.882972557476,-981.0927442344733,677.8301816540511,-717.2493823880876,681.2978353448561,-486.55646540684006C684.7654890356612,-255.8635484255925,661.3195074907916,73.57557618567355,660.8059221448301,304.1575018874853C660.2923367988686,534.7394275892971,679.4504841931795,707.6329135036997,678.2163232690874,896.9350888040303C676.9821623449953,1086.237264104361,659.7703438117921,1229.4597351568077,653.4009566002776,1439.9705536894694C647.031569388763,1650.481372222131,642.233492766713,2039.9950922815783,640,2160L 1920 2160 L 1920 -1080 Z" fill="url(&quot;#SvgjsLinearGradient1614&quot;)"></path><path d="M800,-1080C804.6310074309844,-1022.7000725241535,836.2208916947736,-865.4033735947282,827.786044585906,-736.2004351449209C819.3511974770383,-606.9974966951136,767.907299544573,-433.20426096432993,749.3909173467941,-304.782369301156C730.8745351490153,-176.36047763798206,711.2423841111845,-126.43142539232011,716.6877513992326,34.33091483412272C722.1331186872808,195.09325506056555,776.4291458322484,494.5201114196137,782.0631210750832,659.791672057501C787.6970963179181,825.0632326953884,754.9563273204673,903.1823771069502,750.4916028562416,1025.9602786614464C746.0268783920159,1148.7381802159427,734.0037967225735,1261.9003336762455,755.2747742897292,1396.4590813844786C776.5457518568849,1531.0178290927117,870.6632639741304,1706.0559451415918,878.1174682591756,1833.3127649108453C885.5716725442207,1960.5695846800988,813.0195780431959,2105.5521274851408,800,2160L 1920 2160 L 1920 -1080 Z" fill="url(&quot;#SvgjsLinearGradient1615&quot;)"></path><path d="M960,-1080C965.3437516984294,-986.1410538699386,986.0818604643403,-699.1866080998553,992.0625101905763,-516.8463232196316C998.0431599168123,-334.50603833940784,987.2526134706573,-163.07572827533036,995.8838983574159,14.041709281342662C1004.5151832441745,191.1591468380157,1041.5967388668037,347.11412558501456,1043.8502195111278,545.8583021204065C1046.1037001554519,744.6024786557984,1028.2862408392136,1017.0194826662628,1009.4047822233599,1206.5067684936942C990.5233236075061,1395.9940543211255,938.795598186565,1523.8664785006104,930.561467816005,1682.7820170849945C922.327337445445,1841.6975556693787,955.0935779693342,2080.4636695141658,960,2160L 1920 2160 L 1920 -1080 Z" fill="url(&quot;#SvgjsLinearGradient1616&quot;)"></path><path d="M1120,-1080C1115.980413677262,-1023.0776020188026,1106.861495639975,-890.2960798599785,1095.8824820635723,-738.4656121128155C1084.9034684871697,-586.6351443656525,1030.6418537643933,-328.0516322473874,1054.1259185415845,-169.017193517022C1077.6099833187757,-9.982754786656614,1205.1649694052903,107.80104421991543,1236.786870726719,215.74102026937686C1268.4087720481475,323.6809963188383,1264.6287468823816,349.47316307489257,1243.857326470156,478.62266277974663C1223.0859060579305,607.7721624846007,1138.605351121868,862.0977632430286,1112.158348253365,990.6380184985014C1085.711345384862,1119.1782737539743,1086.826170854866,1116.0079614255533,1085.1753092591375,1249.8641943125835C1083.524447663409,1383.7204271996138,1096.4490635555178,1642.08611487278,1102.2531786789948,1793.7754158206826C1108.0572938024718,1945.4647167685853,1117.042196446499,2098.9625693034473,1120,2160L 1920 2160 L 1920 -1080 Z" fill="url(&quot;#SvgjsLinearGradient1617&quot;)"></path><path d="M1280,-1080C1284.1512015347607,-1005.1882273957694,1323.2218608375551,-785.1474451920395,1304.9072092085644,-631.1293643746164C1286.5925575795736,-477.11128355719336,1187.748087580845,-315.12540412020655,1170.1120902260554,-155.8915150954614C1152.4760928712658,3.3423739292838093,1173.5252406283576,174.2362508179207,1199.0912250798272,324.2739697738548C1224.6572095312968,474.3116887297889,1327.1315902096192,574.4442478474751,1323.5079969348724,744.3347986401432C1319.8844036601256,914.2253494328112,1181.5766737143767,1167.7644503333504,1177.3496654313467,1343.6172745298627C1173.1226571483166,1519.470098726375,1281.0375581419169,1663.3879562408604,1298.1459472366923,1799.4517438192165C1315.2543363314678,1935.5155313975727,1283.0243245394488,2099.9086239698695,1280,2160L 1920 2160 L 1920 -1080 Z" fill="url(&quot;#SvgjsLinearGradient1618&quot;)"></path><path d="M1440,-1080C1441.2712453729664,-970.8865518214204,1449.2067619217976,-603.4935710906196,1447.627472237798,-425.3193109285224C1446.0481825537984,-247.1450507664251,1412.6121783110477,-170.8335649028797,1430.5242618960021,-10.954439027416413C1448.4363454809566,148.92468684804686,1574.508209824775,347.209681395012,1555.0999737475247,533.9554443242573C1535.6917376702745,720.7012072535026,1351.9522633210254,907.5818682997094,1314.074845432501,1109.5201385480555C1276.1974275439766,1311.4584087964015,1306.8479406551282,1570.5050889056763,1327.835466416378,1745.5850658143338C1348.8229921776278,1920.6650427229913,1421.3059110693964,2090.930844302389,1440,2160L 1920 2160 L 1920 -1080 Z" fill="url(&quot;#SvgjsLinearGradient1619&quot;)"></path><path d="M1600,-1080C1620.1836323697596,-938.5783827515986,1738.7448947638698,-517.341285665404,1721.1017942185576,-231.4702965095919C1703.4586936732455,54.40069264622025,1521.2057835753355,375.1683097902527,1494.1413967281278,635.2259349348728C1467.07700988092,895.283560079493,1541.0723725899986,1074.7464435139411,1558.7154731353107,1328.875454358129C1576.3585736806228,1583.0044652023169,1593.1192455225519,2021.4792423930214,1600,2160L 1920 2160 L 1920 -1080 Z" fill="url(&quot;#SvgjsLinearGradient1620&quot;)"></path><path d="M1760,-1080C1762.3978050692485,-966.7847940112472,1794.317865273485,-614.5248646206792,1774.3868304154907,-400.70876406748323C1754.4557955574965,-186.89266351428728,1622.6328467648766,11.701223238754153,1640.4137908520345,202.89660331917565C1658.1947349391924,394.09198339959715,1839.8220628582876,542.5818586174457,1881.0724949384378,746.4635164150459C1922.322927018588,950.345174212646,1908.0951324893422,1190.5971361739507,1887.916383332936,1426.1865501047764C1867.7376341765298,1661.775964035602,1781.319397222156,2037.697758350796,1760,2160L 1920 2160 L 1920 -1080 Z" fill="url(&quot;#SvgjsLinearGradient1621&quot;)"></path></g><defs><linearGradient x1="0.1" y1="0" x2="0" y2="1" id="SvgjsLinearGradient1610"><stop stop-color="#dad416" offset="0"></stop><stop stop-color="#dab316" offset="0"></stop></linearGradient><linearGradient x1="0.1" y1="0" x2="0" y2="1" id="SvgjsLinearGradient1611"><stop stop-color="#bdb813" offset="0"></stop><stop stop-color="#bd9c13" offset="0.08333333333333333"></stop></linearGradient><linearGradient x1="0.1" y1="0" x2="0" y2="1" id="SvgjsLinearGradient1612"><stop stop-color="#a09b10" offset="0"></stop><stop stop-color="#a08310" offset="0.16666666666666666"></stop></linearGradient><linearGradient x1="0.1" y1="0" x2="0" y2="1" id="SvgjsLinearGradient1613"><stop stop-color="#837f0d" offset="0"></stop><stop stop-color="#836b0d" offset="0.25"></stop></linearGradient><linearGradient x1="0.1" y1="0" x2="0" y2="1" id="SvgjsLinearGradient1614"><stop stop-color="#66630a" offset="0"></stop><stop stop-color="#66540a" offset="0.3333333333333333"></stop></linearGradient><linearGradient x1="0.1" y1="0" x2="0" y2="1" id="SvgjsLinearGradient1615"><stop stop-color="#494707" offset="0"></stop><stop stop-color="#493c07" offset="0.4166666666666667"></stop></linearGradient><linearGradient x1="0.1" y1="0" x2="0" y2="1" id="SvgjsLinearGradient1616"><stop stop-color="#2b2a04" offset="0"></stop><stop stop-color="#2b2304" offset="0.5"></stop></linearGradient><linearGradient x1="0.1" y1="0" x2="0" y2="1" id="SvgjsLinearGradient1617"><stop stop-color="#0e0e01" offset="0"></stop><stop stop-color="#0e0c01" offset="0.5833333333333334"></stop></linearGradient><linearGradient x1="0.1" y1="0" x2="0" y2="1" id="SvgjsLinearGradient1618"><stop stop-color="#000000" offset="0"></stop><stop stop-color="#000000" offset="0.6666666666666666"></stop></linearGradient><linearGradient x1="0.1" y1="0" x2="0" y2="1" id="SvgjsLinearGradient1619"><stop stop-color="#000000" offset="0"></stop><stop stop-color="#000000" offset="0.75"></stop></linearGradient><linearGradient x1="0.1" y1="0" x2="0" y2="1" id="SvgjsLinearGradient1620"><stop stop-color="#000000" offset="0"></stop><stop stop-color="#000000" offset="0.8333333333333334"></stop></linearGradient><linearGradient x1="0.1" y1="0" x2="0" y2="1" id="SvgjsLinearGradient1621"><stop stop-color="#000000" offset="0"></stop><stop stop-color="#000000" offset="0.9166666666666666"></stop></linearGradient></defs></svg>